<?xml version="1.0" encoding="utf-8"?>
<!-- Generator: Adobe Illustrator 27.0.0, SVG Export Plug-In . SVG Version: 6.00 Build 0)  -->
<svg version="1.1" id="Camada_1" xmlns="http://www.w3.org/2000/svg" xmlns:xlink="http://www.w3.org/1999/xlink" x="0px" y="0px"
	 viewBox="0 0 979 207" style="enable-background:new 0 0 979 207;" xml:space="preserve">
<style type="text/css">
	.st0{fill:#D56E55;}
	.st1{fill:none;stroke:#25466F;stroke-width:8;stroke-linecap:round;stroke-miterlimit:10;}
	.st2{fill:#E1DDE2;}
	.st3{fill:#FFFFFF;}
	.st4{fill:#082D57;}
	.st5{fill:#F1F1F1;}
	.st6{fill:#F3F2F1;stroke:#FFFFFF;stroke-width:0.5;stroke-miterlimit:10;}
	.st7{stroke:#FFFFFF;stroke-miterlimit:10;}
	.st8{fill:#DBDBDC;}
	.st9{fill:none;stroke:#000000;stroke-miterlimit:10;}
</style>
<g>
	<path class="st0" d="M239.2,150.6V74.8h21.7v10.8h10.8v10.8h10.8V85.6h10.8V74.8H315v75.8h-21.7v-43.3h-10.8v21.7h-10.8v-21.7
		h-10.8v43.3H239.2z"/>
	<path class="st0" d="M336.7,150.6v-10.8h21.7V85.6h-21.7V74.8h65v10.8H380v54.2h21.7v10.8H336.7z"/>
	<path class="st0" d="M434.2,150.6v-10.8h-10.8v-10.8h-10.8V96.5h10.8V85.6h10.8V74.8h43.3v10.8h10.8v10.8h-21.7V85.6H445v10.8
		h-10.8v32.5H445v10.8h21.7v-10.8h21.7v10.8h-10.8v10.8H434.2z"/>
	<path class="st0" d="M510,150.6v-10.8h21.7V85.6H510V74.8h65v10.8h-21.7v54.2H575v10.8H510z"/>
	<path class="st0" d="M596.7,150.6V74.8h21.7v65h43.3v10.8H596.7z"/>
	<path class="st0" d="M683.3,150.6v-10.8H705V85.6h-21.7V74.8h65v10.8h-21.7v54.2h21.7v10.8H683.3z"/>
	<path class="st0" d="M759.1,150.6V74.8h21.7v10.8h10.8v10.8h10.8v10.8h10.8V74.8h21.7v75.8h-21.7v-21.7h-10.8v-10.8h-10.8v-10.8
		h-10.8v43.3H759.1z"/>
	<path class="st0" d="M856.6,150.6v-10.8h21.7V85.6h-21.7V74.8h65v10.8h-21.7v54.2h21.7v10.8H856.6z"/>
</g>
<g>
	<g>
		<g>
			<circle class="st0" cx="236.4" cy="28.3" r="8.6"/>
			<path class="st1" d="M192.8,92.9c-4.7-20.4,0.8-40.9,14.9-53.2c10-8.7,21.3-10.8,26.9-11.4"/>
		</g>
		<g>
			<path class="st2" d="M78.9,128.9c13.2-14.2,16.6-40,18.2-63.4l30,8.6c-19.7,12.8-22.3,41-18.1,63.4L78.9,128.9z"/>
			<g>
				<path class="st3" d="M97.3,65.9l29.1,8.4c-19.3,12.9-21.9,40.7-17.8,62.9l-29.2-8.4C92.4,114.5,95.8,89.1,97.3,65.9 M96.9,65.2
					c-1.7,26.5-5.6,50.4-18.4,63.8l30.8,8.9c-4.7-24.4-0.7-51.8,18.4-63.8L96.9,65.2L96.9,65.2z"/>
			</g>
		</g>
		<g>
			<path class="st4" d="M173.1,156.3L89,132c15.4-18.6,11.5-41.9,8.4-65.9l94.1,26.3C193.2,116.8,186.3,137.8,173.1,156.3z"/>
		</g>
		<g>
			<g>
				<g>
					<polygon class="st2" points="104.1,102.2 102.9,84.6 99.9,66.1 115.3,70.5 130.6,74.9 118.3,89.1 					"/>
				</g>
				<g>
					<polygon class="st2" points="135.1,110.4 133.7,93.5 130.7,75 146.1,79.4 161.4,83.8 149,97.9 					"/>
				</g>
				<g>
					<polygon class="st2" points="165.9,119.2 164.5,102.4 161.5,83.8 176.9,88.3 192.2,92.7 179.8,106.8 					"/>
				</g>
			</g>
		</g>
		<g>
			<g>
				<g>
					<polygon class="st5" points="103.6,102.6 100.7,84 97.7,65.4 113,69.9 128.4,74.3 115.5,87.5 					"/>
				</g>
				<g>
					<polygon class="st5" points="134.4,111.4 131.4,92.9 128.5,74.3 143.8,78.7 159.2,83.2 146.3,96.3 					"/>
				</g>
				<g>
					<polygon class="st5" points="165.2,120.3 162.2,101.7 159.3,83.2 174.6,87.6 190,92 177,105.2 					"/>
				</g>
			</g>
		</g>
		<g>
			<g>
				<polygon class="st2" points="113.9,107.5 103.8,118.2 91.4,132.4 106.8,136.8 122.1,141.2 119.1,122.7 				"/>
			</g>
			<g>
				<polygon class="st2" points="145.1,114.9 134.6,127.1 122.2,141.3 137.5,145.7 152.9,150.1 149.9,131.5 				"/>
			</g>
			<g>
				<polygon class="st2" points="175.7,124.5 165.4,136 153,150.1 168.3,154.6 183.7,159 180.7,140.4 				"/>
			</g>
		</g>
		<g>
			<g>
				<polygon class="st5" points="113.8,103.8 101.4,117.9 89.1,132.1 104.4,136.5 119.8,140.9 115.8,122.9 				"/>
			</g>
			<g>
				<polygon class="st5" points="144.6,112.7 132.2,126.8 119.8,140.9 135.2,145.4 150.5,149.8 146.6,131.8 				"/>
			</g>
			<g>
				<polygon class="st5" points="175.4,121.5 163,135.7 150.6,149.8 166,154.2 181.3,158.7 177.4,140.6 				"/>
			</g>
		</g>
		<g>
			<path class="st2" d="M171.2,155.5c13.1-17.4,24.6-43,18.4-63.3l22.6,6.5L193.9,162L171.2,155.5z"/>
			<g>
				<path class="st3" d="M190,92.6l21.9,6.3l-18.1,62.9l-22.1-6.4C184.6,138,195.9,112.7,190,92.6 M189.2,91.8
					c6.3,19.3-4.1,44.9-18.4,63.8l23.3,6.7l18.4-63.8L189.2,91.8L189.2,91.8z"/>
			</g>
		</g>
		<path class="st6" d="M135.1,37.3l-6.4-1.8c-11.4-3.3-23.4,3.4-26.7,14.8l-4.5,15.6l63.4,18.3v0C166.7,64.1,155.1,43.1,135.1,37.3z
			"/>
		<ellipse transform="matrix(0.277 -0.9609 0.9609 0.277 34.5486 156.0719)" class="st7" cx="121" cy="55.1" rx="10.4" ry="7.2"/>
		<g>
			
				<rect x="131.9" y="89.1" transform="matrix(0.277 -0.9609 0.9609 0.277 -45.3359 237.7605)" class="st5" width="6.8" height="119.8"/>
			<g>
				<path class="st3" d="M78.9,129.4l114.7,33.1l-1.8,6.1L77.1,135.5L78.9,129.4 M78.5,128.8l-2,7l115.6,33.3l2-7L78.5,128.8
					L78.5,128.8z"/>
			</g>
		</g>
		<g>
			<circle cx="193.9" cy="96.8" r="1.2"/>
		</g>
		<g>
			<circle cx="208.1" cy="100.9" r="1.2"/>
		</g>
		<g>
			<circle cx="177.2" cy="154.6" r="1.2"/>
		</g>
		<g>
			<circle cx="191.5" cy="158.7" r="1.2"/>
		</g>
		<g>
			<circle cx="80" cy="130.7" r="0.4"/>
		</g>
		<g>
			<circle cx="78.7" cy="135.2" r="0.4"/>
		</g>
		<g>
			<circle cx="168.1" cy="160.9" r="0.4"/>
		</g>
		<g>
			<circle cx="169.4" cy="156.4" r="0.4"/>
		</g>
		<g>
			
				<rect x="178.1" y="150.5" transform="matrix(0.277 -0.9609 0.9609 0.277 -24.7387 291.7522)" class="st8" width="6.8" height="23.7"/>
			<g>
				<path class="st3" d="M171.2,156.1l22.3,6.4l-1.8,6.1l-22.3-6.4L171.2,156.1 M170.9,155.4l-2,7l23.3,6.7l2-7L170.9,155.4
					L170.9,155.4z"/>
			</g>
		</g>
		<path class="st6" d="M185.8,51.9l-4.1-1.2c-11.4-3.3-23.4,3.4-26.7,14.8L150.4,81l61.2,17.6l0,0C217.4,78.7,205.7,57.7,185.8,51.9
			z"/>
		<ellipse transform="matrix(0.277 -0.9609 0.9609 0.277 59.2538 220.8333)" class="st7" cx="176.4" cy="71" rx="10.4" ry="7.2"/>
	</g>
	<path class="st9" d="M95,148c-3.3,10.3-1.3,20.2,5,25c1.4,1,3.9,2.6,8,3"/>
	<path class="st9" d="M109.8,148.9c-2.9,8.8-1.1,17.5,4.3,21.6c1.2,0.9,3.4,2.2,6.9,2.6"/>
	<path class="st9" d="M121.5,149.7c-2.2,6.7-0.8,13.3,3.3,16.4c0.9,0.7,2.6,1.7,5.3,2"/>
</g>
</svg>
